<svg width="30" height="30" viewBox="0 0 30 30" fill="none" xmlns="http://www.w3.org/2000/svg">
<g clip-path="url(#clip0_7_27123)">
<path d="M15 2.5C10.1625 2.5 6.25 6.4125 6.25 11.25C6.25 17.8125 15 27.5 15 27.5C15 27.5 23.75 17.8125 23.75 11.25C23.75 6.4125 19.8375 2.5 15 2.5ZM15 14.375C13.275 14.375 11.875 12.975 11.875 11.25C11.875 9.525 13.275 8.125 15 8.125C16.725 8.125 18.125 9.525 18.125 11.25C18.125 12.975 16.725 14.375 15 14.375Z" fill="url(#paint0_linear_7_27123)" fill-opacity="0.5"/>
</g>
<defs>
<linearGradient id="paint0_linear_7_27123" x1="23.75" y1="15" x2="1.90074" y2="15" gradientUnits="userSpaceOnUse">
<stop stop-color="#F1A5C9"/>
<stop offset="1" stop-color="#FFED00"/>
<stop offset="1" stop-color="#FFED00"/>
</linearGradient>
<clipPath id="clip0_7_27123">
<rect width="30" height="30" fill="white"/>
</clipPath>
</defs>
</svg>
