<svg width="30" height="30" viewBox="0 0 30 30" fill="none" xmlns="http://www.w3.org/2000/svg">
<path d="M11.1924 16.5242L11.1924 16.5242L17.5199 12.343L17.535 12.333L17.5526 12.3289C17.5985 12.3184 17.6643 12.3038 17.7323 12.3044C17.8016 12.305 17.8824 12.3214 17.9508 12.3811C18.0204 12.4419 18.0463 12.5252 18.0555 12.5886C18.0648 12.6523 18.0596 12.7113 18.0527 12.7428L18.0523 12.7445C18.0464 12.7695 18.034 12.793 18.0231 12.8113C18.0111 12.8314 17.996 12.8533 17.9786 12.8764C17.9439 12.9226 17.8966 12.9788 17.8396 13.0428C17.7252 13.171 17.5668 13.3358 17.3795 13.5239C17.0046 13.9004 16.51 14.3745 16.0116 14.8452C15.4855 15.3421 14.9568 15.8337 14.558 16.2045C14.1987 16.5387 13.9448 16.7748 13.8933 16.8282L13.8933 16.8283C13.7864 16.9392 13.678 17.0446 13.5738 17.1451C13.5619 17.1565 13.5501 17.168 13.5383 17.1793C13.4466 17.2677 13.3591 17.3521 13.2779 17.4346C13.0932 17.6226 12.952 17.7912 12.8797 17.9559C12.8105 18.1139 12.8046 18.2678 12.8942 18.4395C12.9877 18.6184 13.1887 18.8235 13.5538 19.0642L13.5538 19.0642C14.1617 19.4651 14.6493 19.7971 15.1342 20.1273L15.2143 20.1819C15.7259 20.5302 16.2418 20.8808 16.901 21.3127C16.9011 21.3128 16.9011 21.3128 16.9011 21.3128L16.8463 21.3964L11.1924 16.5242ZM11.1924 16.5242L11.1909 16.5252M11.1924 16.5242L11.1909 16.5252M11.1909 16.5252C10.6014 16.9301 10.0795 17.1183 9.62212 17.1089L11.1909 16.5252ZM19.2135 22.4256L19.2134 22.4256L9.62207 17.1089C9.36675 17.1036 8.98499 17.0305 8.56546 16.9252C8.14823 16.8205 7.7015 16.6859 7.31978 16.5613L7.31967 16.5613C7.20466 16.5239 7.0936 16.489 6.98722 16.4555C6.65228 16.3502 6.36381 16.2594 6.14533 16.1536C6.0026 16.0845 5.90106 16.0138 5.83892 15.9376C5.77996 15.8652 5.75401 15.7852 5.76674 15.6839L5.76674 15.6838C5.77851 15.5897 5.85274 15.4746 6.03109 15.342C6.20685 15.2113 6.46807 15.0754 6.81948 14.9356L6.8195 14.9356L6.82246 14.9343C11.195 13.0293 14.1105 11.7734 15.5684 11.1662C17.6519 10.2998 18.9076 9.7923 19.7127 9.50009C20.5194 9.20733 20.8633 9.13485 21.1279 9.13014C21.4482 9.12566 21.6318 9.25239 21.736 9.43736C21.8451 9.63108 21.8745 9.90258 21.8468 10.1932C21.8468 10.1936 21.8468 10.194 21.8467 10.1944L21.6292 11.9927L21.629 11.9938L21.1169 15.6037L20.1492 20.9693C20.1492 20.9694 20.1492 20.9695 20.1492 20.9696C19.9409 22.0848 19.5417 22.3958 19.2135 22.4256ZM6.78252 14.8427C6.07252 15.1252 5.70126 15.4014 5.66751 15.6714L6.78252 14.8427Z" fill="#8C8C8C" stroke="#8C8C8C" stroke-width="0.2"/>
<circle cx="15" cy="15" r="14" stroke="#8C8C8C" stroke-width="2"/>
</svg>
