<svg width="30" height="30" viewBox="0 0 30 30" fill="none" xmlns="http://www.w3.org/2000/svg">
<g clip-path="url(#clip0_7_22149)">
<path d="M15 1C22.732 1 29 7.26803 29 15C29 22.732 22.732 29 15 29C7.26803 29 1 22.732 1 15C1 7.26803 7.26803 1 15 1Z" stroke="#8C8C8C" stroke-width="2"/>
<path d="M18.9963 13.0989C18.9234 12.5062 18.7412 12.0409 18.4177 11.6286C17.9976 11.0978 17.4608 10.78 16.666 10.5914C16.148 10.4657 15.9387 10.4802 15.7514 10.6513C15.5769 10.8116 15.5428 11.133 15.6762 11.3412C15.77 11.4922 15.8782 11.5463 16.179 11.6054C16.5797 11.6791 16.8567 11.7748 17.1085 11.9188C17.6432 12.2275 17.8922 12.7106 17.9188 13.4927C17.9313 13.8599 17.963 13.9728 18.0913 14.103C18.329 14.3411 18.752 14.2949 18.9315 14.0099C18.9973 13.9025 19.0074 13.8558 19.0143 13.6065C19.019 13.4521 19.0123 13.2223 18.9963 13.0989Z" fill="#8C8C8C"/>
<path d="M21.0904 13.7673C20.9849 11.9514 20.2746 10.4904 19.0035 9.46257C18.2873 8.88494 17.4216 8.48782 16.4728 8.29469C16.1251 8.22557 15.4852 8.16963 15.3754 8.20163C15.2718 8.23132 15.1253 8.34344 15.0599 8.44494C14.9908 8.55494 14.9753 8.80057 15.0342 8.94263C15.1293 9.18013 15.3062 9.26407 15.8017 9.30744C16.5655 9.37425 17.3533 9.64257 17.9486 10.0399C18.6281 10.4922 19.1684 11.1109 19.5178 11.8379C19.8198 12.4626 20.0055 13.3628 20.0004 14.1689C19.9986 14.4604 20.0437 14.6251 20.1609 14.7454C20.3379 14.9305 20.5959 14.971 20.8236 14.8481C21.0759 14.7154 21.1349 14.4824 21.0904 13.7673Z" fill="#8C8C8C"/>
<path d="M23.4076 20.7602C23.372 20.6563 23.2892 20.4963 23.23 20.4043C22.8569 19.841 20.8527 18.2726 19.8521 17.7597C19.2807 17.4662 18.8574 17.3683 18.5436 17.4602C18.2061 17.5551 18.0285 17.7122 17.463 18.4149C17.2351 18.6966 17.0012 18.9605 16.939 19.002C16.7851 19.1087 16.4831 19.1947 16.27 19.1947C15.7756 19.1917 14.8786 18.8715 14.1888 18.4505C13.653 18.1243 12.9662 17.5403 12.4392 16.9621C11.8175 16.2832 11.3942 15.6842 11.0596 15.0082C10.6274 14.1395 10.5179 13.6088 10.6984 13.2203C10.7429 13.1225 10.8021 13.0188 10.8287 12.9862C10.8554 12.9565 11.1337 12.7282 11.4415 12.4792C12.0455 11.9988 12.1432 11.8892 12.2556 11.56C12.3977 11.142 12.3593 10.715 12.1402 10.2852C11.9714 9.95897 11.5304 9.24741 11.2106 8.78785C10.7873 8.18303 9.73336 6.89035 9.52311 6.71535C9.14424 6.40703 8.65874 6.35366 8.12286 6.56122C7.55749 6.7806 6.49761 7.63453 6.04464 8.23047C5.6361 8.7701 5.47925 9.15253 5.45554 9.65653C5.43484 10.0717 5.47035 10.2436 5.68942 10.7743C7.40349 14.937 9.9613 18.2607 13.4754 20.8995C15.3108 22.2782 17.2144 23.3278 19.189 24.0453C20.3405 24.4633 20.8409 24.4841 21.43 24.1402C21.6787 23.9919 22.2944 23.3604 22.6379 22.9008C23.2062 22.1358 23.4165 21.7831 23.4757 21.5014C23.5171 21.3087 23.4846 20.9737 23.4076 20.7602Z" fill="#8C8C8C"/>
<path d="M23.2222 14.1843C23.1843 13.1571 23.0114 12.3146 22.6507 11.3753C22.2947 10.4513 21.9344 9.84833 21.2539 9.03283C20.6106 8.26821 20.1109 7.83158 19.3184 7.34565C18.2127 6.66852 16.8671 6.22041 15.3591 6.03196C14.8448 5.9661 14.7284 5.9708 14.5707 6.07608C14.2649 6.27552 14.269 6.7729 14.5757 6.96933C14.6772 7.03183 14.7673 7.05465 15.1787 7.10846C15.8102 7.19346 16.2162 7.27358 16.6981 7.40508C18.5874 7.92152 20.0404 8.97727 21.0117 10.5445C21.8246 11.8506 22.1621 13.157 22.1142 14.8255C22.0975 15.3895 22.1096 15.4887 22.1958 15.6243C22.3609 15.8768 22.7964 15.9268 23.0197 15.7172C23.1587 15.5895 23.1849 15.4936 23.2123 15.0108C23.2254 14.759 23.2282 14.3872 23.2222 14.1843Z" fill="#8C8C8C"/>
</g>
<defs>
<clipPath id="clip0_7_22149">
<rect width="30" height="30" fill="white"/>
</clipPath>
</defs>
</svg>
