<svg width="30" height="30" viewBox="0 0 30 30" fill="none" xmlns="http://www.w3.org/2000/svg">
<circle cx="15" cy="15" r="14" stroke="#8C8C8C" stroke-width="2"/>
<path d="M22.1912 21.2498H24.3787C25.0037 21.2498 25.3175 20.9373 25.135 20.3198C24.9375 19.7048 24.2288 18.8135 23.2887 17.756C22.7787 17.1535 22.015 16.5048 21.7825 16.1798C21.4575 15.7623 21.55 15.5773 21.7825 15.206C21.7825 15.206 24.4475 11.4523 24.7262 10.1773C24.8662 9.71354 24.7262 9.37354 24.065 9.37354H21.8775C21.32 9.37354 21.065 9.66729 20.925 9.99229C20.925 9.99229 19.8125 12.7035 18.2362 14.4648C17.7262 14.9748 17.495 15.1373 17.2162 15.1373C17.0775 15.1373 16.8763 14.9748 16.8763 14.5123V10.1785C16.8763 9.62228 16.715 9.37479 16.2513 9.37479H12.8125C12.465 9.37479 12.2563 9.63354 12.2563 9.87729C12.2563 10.4048 13.045 10.5273 13.1263 12.0098V15.231C13.1263 15.936 12.9988 16.0648 12.7213 16.0648C12.2612 16.1245 11.1462 14.488 10.53 13.4304C10.0431 12.5949 9.38978 11.0371 9.105 10.2248C8.895 9.61979 8.685 9.37479 8.12625 9.37479H5.9375C5.3125 9.37479 5.1875 9.66854 5.1875 9.99354C5.1875 10.5723 5.92875 13.446 8.64125 17.2473C10.45 19.8423 12.9975 21.2498 15.315 21.2498C16.7062 21.2498 16.8775 20.936 16.8775 20.3985V18.4373C16.8775 17.8123 17.0088 17.6873 17.45 17.6873C17.7738 17.6873 18.33 17.8498 19.6287 19.101C21.1125 20.5848 21.3575 21.2498 22.1912 21.2498Z" fill="#8C8C8C"/>
</svg>
