<svg width="30" height="30" viewBox="0 0 30 30" fill="none" xmlns="http://www.w3.org/2000/svg">
<path fill-rule="evenodd" clip-rule="evenodd" d="M25.5075 4.36C22.7 1.55 18.9675 0.00125 14.9913 0C6.7975 0 0.12875 6.6675 0.125 14.865C0.12375 17.485 0.80875 20.0425 2.11 22.2975L0 30L7.88 27.9325C10.0512 29.1175 12.4962 29.7413 14.9837 29.7425H14.99C23.1825 29.7425 29.8525 23.0737 29.8563 14.8763C29.8587 10.905 28.3137 7.16875 25.5075 4.36ZM14.9913 27.2313H14.9862C12.7687 27.2313 10.595 26.635 8.6975 25.5087L8.24625 25.2413L3.57 26.4675L4.81875 21.9075L4.525 21.44C3.2875 19.4725 2.635 17.1987 2.63625 14.865C2.63875 8.0525 8.1825 2.51 14.9975 2.51C18.2975 2.51 21.4 3.7975 23.7325 6.1325C26.065 8.46875 27.3488 11.5725 27.3475 14.8738C27.3438 21.6888 21.8013 27.2313 14.9913 27.2313ZM21.7688 17.9775C21.3975 17.7913 19.5712 16.8925 19.23 16.7687C18.89 16.645 18.6425 16.5825 18.3937 16.9538C18.145 17.325 17.435 18.1625 17.2175 18.4113C17.0012 18.6588 16.7838 18.69 16.4125 18.5037C16.0413 18.3175 14.8438 17.9263 13.425 16.66C12.3212 15.675 11.575 14.4587 11.3587 14.0863C11.1425 13.7137 11.3363 13.5138 11.5212 13.3288C11.6888 13.1625 11.8925 12.895 12.0788 12.6775C12.2663 12.4625 12.3275 12.3075 12.4525 12.0588C12.5763 11.8113 12.515 11.5938 12.4213 11.4075C12.3275 11.2225 11.585 9.39375 11.2762 8.65C10.975 7.925 10.6688 8.02375 10.44 8.0125C10.2238 8.00125 9.97625 8 9.7275 8C9.48 8 9.0775 8.0925 8.7375 8.465C8.3975 8.8375 7.4375 9.73625 7.4375 11.5638C7.4375 13.3925 8.76875 15.1587 8.95375 15.4062C9.13875 15.6537 11.5725 19.4062 15.2987 21.015C16.185 21.3975 16.8775 21.6262 17.4163 21.7975C18.3062 22.08 19.1163 22.04 19.7563 21.945C20.47 21.8387 21.9538 21.0462 22.2638 20.1787C22.5738 19.3112 22.5738 18.5662 22.48 18.4125C22.3875 18.2562 22.14 18.1637 21.7688 17.9775Z" fill="#8C8C8C"/>
</svg>
